# xmcd CD database file
#
# Track frame offsets:
#	150
#	9572
#	27362
#	31552
#	37971
#	41266
#	46760
#	53640
#	63130
#	73200
#	84751
#	94358
#	98623
#	107083
#	111861
#	120667
#	128162
#	146323
#	150042
#	166099
#	172611
#	177901
#	180570
#	198330
#	214554
#	232493
#	250627
#	254781
#	262586
#	270127
#	272683
#
# Disc length: 3843 seconds
#
# Revision: 1
# Processed by: cddbd v1.5.2PL0 Copyright (c) Steve Scherf et al.
# Submitted via: CDex 1.70beta2
#
DISCID=7f0f011f
DTITLE=Bill Frisell - All Hat
DYEAR=2008
DGENRE=Jazz
TTITLE0=John Hardy
TTITLE1=Opening Theme
TTITLE2=Meet the Stations
TTITLE3=Chrissies Fall
TTITLE4=Peckerwood
TTITLE5=Hardy Race
TTITLE6=Empty Barn
TTITLE7=Stable Scene
TTITLE8=Sting
TTITLE9=Etta Interlude
TTITLE10=Theme Version 2
TTITLE11=Chrissies Theme
TTITLE12=Theme Version 3
TTITLE13=Empty Barn Part 2
TTITLE14=Station Theme
TTITLE15=Interlude 2
TTITLE16=John Hardy - Ray Returns to Etta
TTITLE17=Ray Driving
TTITLE18=Empty Barn Part 3
TTITLE19=Theme Version 4
TTITLE20=Ray and Etta
TTITLE21=Jacksons Epiphany
TTITLE22=Hardy Bar Song
TTITLE23=Theme 5 - Waltz
TTITLE24=Interlude 3
TTITLE25=Hardy Duet
TTITLE26=Chrissie in the Meadow
TTITLE27=Sonny's Losing Montage
TTITLE28=Last Race
TTITLE29=Etta's Theme
TTITLE30=End Credits
EXTD=YEAR: 2008
EXTT0=
EXTT1=
EXTT2=
EXTT3=
EXTT4=
EXTT5=
EXTT6=
EXTT7=
EXTT8=
EXTT9=
EXTT10=
EXTT11=
EXTT12=
EXTT13=
EXTT14=
EXTT15=
EXTT16=
EXTT17=
EXTT18=
EXTT19=
EXTT20=
EXTT21=
EXTT22=
EXTT23=
EXTT24=
EXTT25=
EXTT26=
EXTT27=
EXTT28=
EXTT29=
EXTT30=
PLAYORDER=
